<svg xmlns="http://www.w3.org/2000/svg" xmlns:xlink="http://www.w3.org/1999/xlink" version="1.1" x="0px" y="0px" width="100px" height="100px" viewBox="0 0 100 100" enable-background="new 0 0 100 100" xml:space="preserve">

<g id="Your_Icon">
	<path fill="#FFFFFF" d="M49.898,11C35.48,11,23.795,22.688,23.795,37.105c0,4.137,0.986,8.035,2.699,11.51L49.898,83l23.402-34.385   C75.014,45.14,76,41.242,76,37.105C76,22.688,64.314,11,49.898,11 M50.222,50.535v0.08c-0.11-0.004-0.215-0.035-0.325-0.043   c-0.108,0.008-0.213,0.039-0.322,0.043v-0.08c-6.025-0.484-10.782-5.459-10.782-11.609c0-6.152,4.757-11.127,10.782-11.611v-0.08   c0.109,0.004,0.214,0.035,0.322,0.043c0.11-0.008,0.215-0.039,0.325-0.043v0.08c6.026,0.484,10.783,5.459,10.783,11.611   C61.005,45.076,56.248,50.051,50.222,50.535"/>
</g>
</svg>